<svg width="402" height="402" viewBox="0 0 202 202" fill="none" xmlns="http://www.w3.org/2000/svg">
<path d="M119.735 182.965C165.058 172.563 193.367 127.389 182.965 82.0654C172.563 36.7419 127.389 8.43248 82.0654 18.8345C36.7419 29.2366 8.43252 74.411 18.8346 119.735C29.2366 165.058 74.4111 193.367 119.735 182.965Z" stroke="#3F3F46" stroke-width="2.6844" stroke-miterlimit="10"/>
<path d="M100.868 24.3871C143.124 24.3873 177.378 58.6423 177.378 100.898C177.378 120.247 170.195 137.918 158.35 151.391V63.2631H142.408V165.172C141.544 165.732 140.668 166.273 139.78 166.797V67.1L138.851 68.6488L101.899 130.272H100.112L62.8799 68.6088L61.9512 67.0726V166.797C61.0639 166.273 60.1878 165.732 59.3253 165.173V63.2631H43.3829V151.387C31.54 137.913 24.3576 120.246 24.3575 100.898C24.3575 58.6421 58.6125 24.3871 100.868 24.3871ZM63.1827 64.0209L100.574 125.948L101.004 126.659L101.431 125.946L138.563 64.0199L139.017 63.2631H124.582V63.6537L100.867 109.318L77.1534 63.6537V63.2631H62.7247L63.1827 64.0209Z" fill="#FEE685" stroke="#3F3F46"/>
<path d="M87.4962 135.51L87.6358 135.78H114.1L114.239 135.51L124.582 115.594V173.637C117.113 176.071 109.149 177.409 100.868 177.409C92.587 177.409 84.6228 176.071 77.1534 173.637V115.593L87.4962 135.51Z" fill="#FEE685" stroke="#3F3F46"/>
</svg>
